<?xml version="1.0" encoding="UTF-8" standalone="no"?>
<!DOCTYPE svg PUBLIC "-//W3C//DTD SVG 1.1//EN" "http://www.w3.org/Graphics/SVG/1.1/DTD/svg11.dtd">
<svg width="100%" height="100%" viewBox="0 0 256 256" version="1.1" xmlns="http://www.w3.org/2000/svg" xmlns:xlink="http://www.w3.org/1999/xlink" xml:space="preserve" xmlns:serif="http://www.serif.com/" style="fill-rule:evenodd;clip-rule:evenodd;stroke-linecap:round;stroke-linejoin:round;stroke-miterlimit:1.5;">
    <g transform="matrix(0.997283,0,0,0.997283,12.821,0.535019)">
        <g transform="matrix(1.12419,2.24026e-19,2.60101e-19,1.09741,92.146,-0.126368)">
            <path d="M81.009,214.194C81.009,214.194 81.382,218.452 81.382,220.439L81.382,227.64C81.382,229.627 79.768,231.241 77.781,231.241L70.53,231.241C68.543,231.241 66.929,229.627 66.929,227.64L66.929,220.439C66.929,218.452 66.924,215.253 66.924,215.253" style="stroke:black;stroke-width:3.6px;"/>
        </g>
        <g transform="matrix(-1.12419,2.24026e-19,-2.60101e-19,1.09741,139.739,-0.126368)">
            <path d="M81.009,214.194C81.009,214.194 81.382,218.452 81.382,220.439L81.382,227.64C81.382,229.627 79.768,231.241 77.781,231.241L70.53,231.241C68.543,231.241 66.929,229.627 66.929,227.64L66.929,220.439C66.929,218.452 66.924,215.253 66.924,215.253" style="stroke:black;stroke-width:3.6px;"/>
        </g>
        <g transform="matrix(0.958896,0,0,0.813242,-5.10076,38.4611)">
            <path d="M227.614,91.273C229.634,128.064 229.541,159.232 227.614,185.516C227.614,201.308 215.074,214.13 199.628,214.13C153.654,219.228 106.221,219.875 56.693,214.13C41.247,214.13 28.707,201.308 28.707,185.516C25.893,154.956 26.266,123.428 28.707,91.273C28.707,75.48 41.247,62.659 56.693,62.659C104.201,58.383 151.859,58.761 199.628,62.659C215.074,62.659 227.614,75.48 227.614,91.273Z" style="fill:none;stroke:black;stroke-width:56.39px;"/>
        </g>
        <g transform="matrix(1.12419,0,0,1.09741,-27.576,-0.126368)">
            <path d="M150.986,58.323L104.72,58.996C108.542,49.91 117.531,43.524 128,43.524C138.208,43.524 147.01,49.597 150.986,58.323Z" style="stroke:black;stroke-width:3.6px;"/>
        </g>
        <g transform="matrix(0.995381,-0.510067,0.522514,0.97167,-43.7798,70.1218)">
            <g transform="matrix(1,0,0,1,100.946,-5.86811)">
                <rect x="23.334" y="12.735" width="5.967" height="38.526" style="stroke:black;stroke-width:1.78px;"/>
            </g>
            <g transform="matrix(1,0,0,1,100.877,-4.96155)">
                <circle cx="26.387" cy="11.828" r="6.866" style="stroke:black;stroke-width:1.78px;"/>
            </g>
        </g>
        <g transform="matrix(1.09597,0.244359,-0.250322,1.06986,-3.44577,-29.6103)">
            <g transform="matrix(1,0,0,1,100.946,-5.86811)">
                <rect x="23.334" y="12.735" width="5.967" height="38.526" style="stroke:black;stroke-width:1.81px;"/>
            </g>
            <g transform="matrix(1,0,0,1,100.877,-4.96155)">
                <circle cx="26.387" cy="11.828" r="6.866" style="stroke:black;stroke-width:1.81px;"/>
            </g>
        </g>
    </g>
</svg>
